# Made in Blockbench 4.12.2
mtllib advance_warning_face.mtl

o cuboid
v 1 0.875 0.25
v 1 0.875 0.1875
v 0 0.875 0.25
v 0 0.875 0.1875
v 0.5 0.0625 0.25
v 0.5 0.0625 0.1875
vt 0.0625 0
vt 0.0625 0.9375
vt 0 0.9375
vt 0 0
vt 1 0.95401875
vt 0.9375 0.95401875
vt 0.9375 0
vt 1 0
vt 1 1
vt 0 1
vt 0.5 0.1875
vt 1 1
vt 0 1
vt 0.5 0.1875
vt 1 1
vt 0 1
vt 0 0.9375
vt 1 0.9375
vn -0.851658316704544 -0.5240974256643347 0
vn 0.851658316704544 -0.5240974256643347 0
vn 0 0 1
vn 0 0 -1
vn 0 1 0
usemtl m_babcc5e7-cb70-0f88-d772-568f90b8c4b4
f 5/1/1 3/2/1 4/3/1 6/4/1
f 2/5/2 1/6/2 5/7/2 6/8/2
f 1/9/3 3/10/3 5/11/3
f 4/12/4 2/13/4 6/14/4
f 2/15/5 4/16/5 3/17/5 1/18/5