# Made in Blockbench 5.0.7
mtllib advance_warning_face.mtl

o cuboid
v 0.5 0.0625 1
v 0 0.875 1
v 0 0.875 0.9375
v 0.5 0.0625 0.9375
v 1 0.875 0.9375
v 1 0.875 1
vt 0.0625 0
vt 0.0625 0.9375
vt 0 0.9375
vt 0 0
vt 1 0.95401875
vt 0.9375 0.95401875
vt 0.9375 0
vt 1 0
vt 1 1
vt 0 1
vt 0.5 0.1875
vt 1 1
vt 0 1
vt 0.5 0.1875
vt 1 1
vt 0 1
vt 0 0.9375
vt 1 0.9375
vn -0.851658316704544 -0.5240974256643347 0
vn 0.851658316704544 -0.5240974256643347 0
vn 0 0 1
vn 0 0 -1
vn 0 1 0
usemtl m_17d71c62-055d-4bce-fac2-4450336d8299
f 1/1/1 2/2/1 3/3/1 4/4/1
f 5/5/2 6/6/2 1/7/2 4/8/2
f 6/9/3 2/10/3 1/11/3
f 3/12/4 5/13/4 4/14/4
f 5/15/5 3/16/5 2/17/5 6/18/5