# Made in Blockbench 4.12.2
mtllib item.mtl

o cuboid
v 0.5 0.0625 0.25
v 0 0.875 0.25
v 0 0.875 0.1875
v 0.5 0.0625 0.1875
v 1 0.875 0.1875
v 1 0.875 0.25
vt 0.0625 0
vt 0.0625 0.9375
vt 0 0.9375
vt 0 0
vt 1 0.95401875
vt 0.9375 0.95401875
vt 0.9375 0
vt 1 0
vt 1 1
vt 0 1
vt 0.5 0.1875
vt 1 1
vt 0 1
vt 0.5 0.1875
vt 1 1
vt 0 1
vt 0 0.9375
vt 1 0.9375
vn -0.851658316704544 -0.5240974256643347 0
vn 0.851658316704544 -0.5240974256643347 0
vn 0 0 1
vn 0 0 -1
vn 0 1 0
usemtl m_e08f326d-1903-ebc8-43ed-04c9f6dc6571
f 1/1/1 2/2/1 3/3/1 4/4/1
f 5/5/2 6/6/2 1/7/2 4/8/2
f 6/9/3 2/10/3 1/11/3
f 3/12/4 5/13/4 4/14/4
f 5/15/5 3/16/5 2/17/5 6/18/5
o cube
v 0.75 1 0.75
v 0.75 1 0.25
v 0.75 0 0.75
v 0.75 0 0.25
v 0.25 1 0.25
v 0.25 1 0.75
v 0.25 0 0.25
v 0.25 0 0.75
vt 0.25 1
vt 0.75 1
vt 0.75 0
vt 0.25 0
vt 0.25 1
vt 0.75 1
vt 0.75 0
vt 0.25 0
vt 0.25 1
vt 0.75 1
vt 0.75 0
vt 0.25 0
vt 0.25 1
vt 0.75 1
vt 0.75 0
vt 0.25 0
vt 0.5 1
vt 1 1
vt 1 0.5
vt 0.5 0.5
vt 0.5 1
vt 1 1
vt 1 0.5
vt 0.5 0.5
vn 0 0 -1
vn 1 0 0
vn 0 0 1
vn -1 0 0
vn 0 1 0
vn 0 -1 0
usemtl m_7e25faa5-1171-e62d-6423-945cb4c6ec05
f 10/22/6 13/21/6 11/20/6 8/19/6
f 9/26/7 10/25/7 8/24/7 7/23/7
f 14/30/8 9/29/8 7/28/8 12/27/8
f 13/34/9 14/33/9 12/32/9 11/31/9
usemtl m_eeed5d02-c63f-fa5b-cf9e-0301219ff876
f 12/38/10 7/37/10 8/36/10 11/35/10
f 13/42/11 10/41/11 9/40/11 14/39/11